<svg width="16" height="16" viewBox="0 0 16 16" fill="none" xmlns="http://www.w3.org/2000/svg">
<g clip-path="url(#clip0_28_2)">
<rect width="16" height="16" fill="black"/>
<path d="M5.74124 7.508C5.67591 7.508 5.62458 7.49867 5.58724 7.48C5.50324 7.44267 5.46124 7.424 5.46124 7.424C5.46124 7.41467 5.50324 7.382 5.58724 7.326C5.65258 7.28867 5.72724 7.27467 5.81124 7.284C5.90458 7.29333 5.96991 7.29333 6.00724 7.284C6.23124 7.23733 6.50191 7.172 6.81924 7.088C7.13658 7.004 7.50524 6.836 7.92524 6.584L8.47124 6.262C8.51791 6.234 8.55058 6.23867 8.56924 6.276C8.55058 6.28533 8.54124 6.30867 8.54124 6.346C8.60658 6.346 8.64391 6.32267 8.65324 6.276C8.67191 6.22 8.69058 6.16867 8.70924 6.122H8.72324L9.03124 5.926C9.07791 5.91667 9.11991 5.92133 9.15724 5.94C9.20391 5.95867 9.24591 5.954 9.28324 5.926C9.26458 5.88867 9.24591 5.86533 9.22724 5.856C9.20858 5.83733 9.21791 5.814 9.25524 5.786L9.31124 5.744C9.38591 5.69733 9.45124 5.66467 9.50724 5.646C9.57258 5.618 9.61924 5.56667 9.64724 5.492C9.83391 5.324 9.99258 5.156 10.1232 4.988C10.2539 4.82 10.3192 4.66133 10.3192 4.512C10.3192 4.35333 10.2306 4.218 10.0532 4.106C9.88524 3.98467 9.58191 3.896 9.14324 3.84L9.03124 3.826C8.96591 3.81667 8.90524 3.80733 8.84924 3.798C8.79324 3.78867 8.73724 3.77 8.68124 3.742C8.69058 3.77933 8.67191 3.798 8.62524 3.798C8.49458 3.78867 8.36391 3.784 8.23324 3.784C8.10258 3.77467 7.97658 3.77 7.85524 3.77C7.64991 3.77 7.45858 3.77467 7.28124 3.784C7.11324 3.79333 6.99191 3.80267 6.91724 3.812L6.45524 3.868C6.39924 3.84933 6.34324 3.85867 6.28724 3.896H6.27324C6.20791 3.896 6.14258 3.90533 6.07724 3.924C6.01191 3.93333 5.94191 3.94733 5.86724 3.966C5.82991 3.97533 5.78791 3.98467 5.74124 3.994C5.69458 3.994 5.64791 4.00333 5.60124 4.022L5.32124 4.078C5.25591 4.12467 5.17191 4.148 5.06924 4.148H5.05524L4.78924 4.218H4.77524C4.73791 4.218 4.70524 4.19933 4.67724 4.162C4.64924 4.11533 4.63058 4.07333 4.62124 4.036C4.61191 4.092 4.59791 4.15267 4.57924 4.218C4.56058 4.28333 4.52791 4.316 4.48124 4.316L4.08924 4.442C4.05191 4.45133 4.00991 4.456 3.96324 4.456C3.91658 4.456 3.86991 4.456 3.82324 4.456C3.77658 4.456 3.73924 4.46067 3.71124 4.47C3.68324 4.47933 3.66458 4.50267 3.65524 4.54C3.65524 4.568 3.64124 4.59133 3.61324 4.61C3.57591 4.64733 3.52924 4.67533 3.47324 4.694C3.41724 4.70333 3.36591 4.71733 3.31924 4.736H3.30524C3.28658 4.736 3.25858 4.72667 3.22124 4.708C3.19324 4.68933 3.16991 4.68467 3.15124 4.694C3.14191 4.70333 3.13258 4.72667 3.12324 4.764C3.11391 4.80133 3.09991 4.82467 3.08124 4.834V4.848C3.02524 4.86667 2.96458 4.89 2.89924 4.918C2.83391 4.946 2.77324 4.974 2.71724 5.002C2.66124 5.03 2.59591 5.06267 2.52124 5.1C2.45591 5.128 2.39991 5.14667 2.35324 5.156C2.33458 5.156 2.32524 5.13733 2.32524 5.1C2.33458 5.06267 2.32991 5.05333 2.31124 5.072C2.25524 5.1 2.19924 5.15133 2.14324 5.226C2.08724 5.30067 2.03591 5.352 1.98924 5.38C1.94258 5.41733 1.89124 5.436 1.83524 5.436C1.78858 5.436 1.74191 5.45467 1.69524 5.492C1.66724 5.52 1.63924 5.56667 1.61124 5.632C1.59258 5.688 1.56924 5.73 1.54124 5.758C1.46658 5.83267 1.39191 5.92133 1.31724 6.024C1.30791 6.04267 1.29391 6.06133 1.27524 6.08C1.25658 6.09867 1.24724 6.122 1.24724 6.15H1.23324C1.17724 6.262 1.14924 6.36933 1.14924 6.472C1.14924 6.67733 1.22391 6.82667 1.37324 6.92C1.53191 7.01333 1.70924 7.08333 1.90524 7.13C1.94258 7.13933 1.97524 7.15333 2.00324 7.172C2.04058 7.19067 2.07791 7.19533 2.11524 7.186C2.15258 7.16733 2.18524 7.158 2.21324 7.158C2.25991 7.158 2.29724 7.17667 2.32524 7.214L2.53524 7.256C2.64724 7.284 2.70324 7.312 2.70324 7.34C2.70324 7.35867 2.67524 7.37733 2.61924 7.396C2.57258 7.40533 2.52591 7.41 2.47924 7.41C2.31124 7.41 2.10591 7.37733 1.86324 7.312C1.62058 7.23733 1.40124 7.13 1.20524 6.99C1.00924 6.85 0.897242 6.668 0.869242 6.444C0.869242 6.43467 0.855242 6.41133 0.827242 6.374C0.808576 6.33667 0.794576 6.304 0.785242 6.276C0.757242 6.192 0.743242 6.108 0.743242 6.024C0.743242 5.86533 0.775909 5.716 0.841242 5.576C0.915909 5.436 1.01391 5.30533 1.13524 5.184C1.18191 5.13733 1.22391 5.10467 1.26124 5.086C1.30791 5.06733 1.35924 5.03933 1.41524 5.002C1.47124 4.96467 1.49924 4.932 1.49924 4.904C1.49924 4.876 1.52724 4.84333 1.58324 4.806C1.65791 4.75933 1.76058 4.70333 1.89124 4.638C2.03124 4.57267 2.13858 4.52133 2.21324 4.484C2.26924 4.484 2.32058 4.46067 2.36724 4.414C2.55391 4.33 2.74991 4.25533 2.95524 4.19C3.16058 4.11533 3.36591 4.04533 3.57124 3.98C3.60858 3.97067 3.64124 3.96133 3.66924 3.952C3.69724 3.94267 3.72524 3.938 3.75324 3.938C3.79058 3.938 3.82791 3.952 3.86524 3.98C3.86524 3.96133 3.86058 3.94733 3.85124 3.938C3.85124 3.91933 3.86058 3.90533 3.87924 3.896C4.11258 3.82133 4.34124 3.75133 4.56524 3.686C4.79858 3.61133 5.02724 3.574 5.25124 3.574H5.26524C5.28391 3.574 5.30258 3.56933 5.32124 3.56C5.34924 3.55067 5.37258 3.546 5.39124 3.546H5.40524L5.50324 3.532C5.55924 3.56 5.61524 3.55067 5.67124 3.504C5.92324 3.45733 6.15658 3.42467 6.37124 3.406C6.58591 3.378 6.76791 3.364 6.91724 3.364H6.97324C7.01991 3.364 7.05724 3.35933 7.08524 3.35H7.22524C7.25324 3.34067 7.28124 3.34067 7.30924 3.35C7.34658 3.35 7.37458 3.35 7.39324 3.35H7.40724C7.51924 3.35 7.63591 3.35467 7.75724 3.364C7.88791 3.364 8.01858 3.364 8.14924 3.364H8.16324C8.20058 3.364 8.22858 3.378 8.24724 3.406C8.27524 3.42467 8.30791 3.41533 8.34524 3.378C8.59724 3.38733 8.84924 3.41533 9.10124 3.462C9.28791 3.49 9.50258 3.546 9.74524 3.63C9.99724 3.714 10.2166 3.84467 10.4032 4.022C10.5899 4.19 10.6832 4.428 10.6832 4.736C10.6832 4.88533 10.6646 5.02067 10.6272 5.142C10.5992 5.254 10.5432 5.35667 10.4592 5.45C10.3846 5.54333 10.2959 5.63667 10.1932 5.73C10.1652 5.758 10.1372 5.79067 10.1092 5.828C10.0812 5.86533 10.0486 5.898 10.0112 5.926C10.0019 5.93533 9.98324 5.94467 9.95524 5.954C9.93658 5.954 9.91791 5.95867 9.89924 5.968C9.88058 5.98667 9.86191 6.00067 9.84324 6.01C9.82458 6.01933 9.80124 6.03333 9.77324 6.052C9.46524 6.25733 9.19924 6.41133 8.97524 6.514C8.76058 6.60733 8.47591 6.71467 8.12124 6.836C8.00924 6.87333 7.92991 6.89667 7.88324 6.906C7.83658 6.906 7.79924 6.91533 7.77124 6.934C7.53791 6.99933 7.27191 7.09267 6.97324 7.214C6.67458 7.33533 6.41791 7.41467 6.20324 7.452C6.18458 7.46133 6.12391 7.47533 6.02124 7.494C5.92791 7.50333 5.83458 7.508 5.74124 7.508ZM9.92724 11.694C9.91791 11.694 9.88524 11.694 9.82924 11.694C9.77324 11.694 9.74058 11.6893 9.73124 11.68C9.69391 11.6613 9.67991 11.6333 9.68924 11.596C9.69858 11.5587 9.68458 11.54 9.64724 11.54C9.60991 11.54 9.58658 11.554 9.57724 11.582C9.56791 11.6193 9.53991 11.638 9.49324 11.638H9.47924C9.43258 11.638 9.39058 11.6147 9.35324 11.568C9.32524 11.5213 9.29258 11.5073 9.25524 11.526C9.19924 11.554 9.15258 11.568 9.11524 11.568C9.04991 11.568 8.99858 11.5447 8.96124 11.498C8.92391 11.4513 8.87258 11.4093 8.80724 11.372C8.79791 11.372 8.77924 11.3767 8.75124 11.386C8.73258 11.3953 8.71391 11.3953 8.69524 11.386C8.68591 11.3767 8.61124 11.3347 8.47124 11.26C8.33124 11.1947 8.19124 11.1247 8.05124 11.05C7.91124 10.9753 7.82724 10.9287 7.79924 10.91C7.77124 10.8447 7.74324 10.8073 7.71524 10.798C7.69658 10.7887 7.65458 10.784 7.58924 10.784C7.55191 10.756 7.50058 10.7233 7.43524 10.686C7.37924 10.658 7.34191 10.6207 7.32324 10.574C7.20191 10.5273 7.09458 10.4713 7.00124 10.406C6.90791 10.3407 6.80991 10.266 6.70724 10.182C6.68858 10.1633 6.66524 10.1493 6.63724 10.14C6.60924 10.1307 6.58591 10.1167 6.56724 10.098L6.18924 9.818C6.17058 9.762 6.10058 9.70133 5.97924 9.636C5.85791 9.56133 5.77391 9.49133 5.72724 9.426C5.71791 9.41667 5.71324 9.40733 5.71324 9.398C5.71324 9.35133 5.68991 9.328 5.64324 9.328C5.61524 9.328 5.58724 9.328 5.55924 9.328C5.53124 9.328 5.51724 9.30933 5.51724 9.272C5.48924 9.20667 5.41924 9.132 5.30724 9.048C5.19524 8.95467 5.09258 8.86133 4.99924 8.768C4.90591 8.67467 4.87324 8.59533 4.90124 8.53C4.86391 8.52067 4.82658 8.516 4.78924 8.516C4.75191 8.516 4.72391 8.502 4.70524 8.474C4.66791 8.39933 4.62124 8.33867 4.56524 8.292C4.53724 8.27333 4.50924 8.24533 4.48124 8.208L4.41124 8.348C4.37391 8.404 4.33658 8.46933 4.29924 8.544C4.26191 8.61867 4.21991 8.698 4.17324 8.782L4.04724 9.034C4.03791 9.062 4.02391 9.076 4.00524 9.076C3.99591 9.06667 3.98191 9.062 3.96324 9.062C3.98191 9.09933 3.99124 9.132 3.99124 9.16C3.99124 9.23467 3.94924 9.314 3.86524 9.398C3.74391 9.678 3.63191 9.944 3.52924 10.196C3.42658 10.448 3.34724 10.6813 3.29124 10.896C3.27258 10.9707 3.24458 11.008 3.20724 11.008C3.14191 11.008 3.10924 10.938 3.10924 10.798C3.10924 10.6673 3.16058 10.462 3.26324 10.182L3.24924 10.196C3.23991 10.196 3.20724 10.2053 3.15124 10.224C3.09524 10.2427 3.05791 10.2473 3.03924 10.238C2.91791 10.238 2.85724 10.196 2.85724 10.112C2.85724 9.888 2.90391 9.65467 2.99724 9.412L3.36124 8.46C3.37991 8.432 3.38924 8.404 3.38924 8.376C3.39858 8.348 3.40791 8.32 3.41724 8.292L3.43124 8.278V8.264L3.48724 7.97C3.50591 7.886 3.51524 7.81133 3.51524 7.746C3.52458 7.68067 3.52924 7.60133 3.52924 7.508C3.52924 7.48 3.54324 7.46133 3.57124 7.452C3.57124 7.38667 3.57591 7.326 3.58524 7.27C3.59458 7.20467 3.59924 7.13933 3.59924 7.074V7.004C3.58991 6.99467 3.58524 6.976 3.58524 6.948C3.58524 6.92933 3.58058 6.91067 3.57124 6.892C3.57124 6.87333 3.57124 6.85467 3.57124 6.836C3.57124 6.82667 3.57124 6.822 3.57124 6.822C3.58058 6.81267 3.58524 6.80333 3.58524 6.794C3.60391 6.682 3.63658 6.57933 3.68324 6.486C3.73924 6.39267 3.79991 6.36933 3.86524 6.416C3.88391 6.42533 3.91658 6.48133 3.96324 6.584C4.01924 6.68667 4.06591 6.76133 4.10324 6.808C4.14058 6.90133 4.18724 6.99 4.24324 7.074C4.29924 7.14867 4.34591 7.23267 4.38324 7.326C4.41124 7.37267 4.42524 7.41 4.42524 7.438C4.42524 7.45667 4.45791 7.47533 4.52324 7.494C4.79391 7.00867 5.06458 6.54667 5.33524 6.108C5.61524 5.66 5.87658 5.31467 6.11924 5.072L6.16124 5.044L6.20324 4.974C6.20324 4.974 6.21258 4.96933 6.23124 4.96C6.24991 4.95067 6.26391 4.95533 6.27324 4.974C6.27324 4.98333 6.26391 5.002 6.24524 5.03C6.23591 5.058 6.23124 5.07667 6.23124 5.086C6.25924 5.13267 6.29191 5.13733 6.32924 5.1C6.33858 5.08133 6.33858 5.03933 6.32924 4.974C6.31991 4.90867 6.31991 4.876 6.32924 4.876C6.34791 4.86667 6.35724 4.86667 6.35724 4.876C6.36658 4.88533 6.37591 4.89 6.38524 4.89C6.40391 4.89 6.41324 4.876 6.41324 4.848C6.41324 4.82 6.41791 4.80133 6.42724 4.792C6.52991 4.75467 6.62324 4.736 6.70724 4.736C6.75391 4.736 6.81924 4.75933 6.90324 4.806C6.99658 4.85267 7.04324 4.918 7.04324 5.002C7.04324 5.04867 7.01991 5.10467 6.97324 5.17C6.96391 5.17933 6.95458 5.198 6.94524 5.226C6.93591 5.24467 6.92191 5.26333 6.90324 5.282C6.89391 5.29133 6.88458 5.296 6.87524 5.296C6.87524 5.28667 6.86591 5.28667 6.84724 5.296C6.83791 5.30533 6.82391 5.31 6.80524 5.31C6.79591 5.30067 6.78191 5.296 6.76324 5.296C6.74458 5.296 6.73991 5.31 6.74924 5.338C6.76791 5.366 6.77258 5.38467 6.76324 5.394C6.75391 5.40333 6.74458 5.40333 6.73524 5.394C6.72591 5.38467 6.71191 5.38933 6.69324 5.408C6.68391 5.41733 6.68858 5.42667 6.70724 5.436C6.73524 5.436 6.73991 5.44533 6.72124 5.464C6.66524 5.52 6.59524 5.58067 6.51124 5.646C6.43658 5.702 6.36191 5.758 6.28724 5.814C6.27791 5.82333 6.26858 5.82333 6.25924 5.814C6.24991 5.79533 6.24058 5.79067 6.23124 5.8L6.13324 5.94C6.03991 6.03333 5.94658 6.13133 5.85324 6.234C5.75991 6.33667 5.66191 6.45333 5.55924 6.584C5.53124 6.64 5.49858 6.69133 5.46124 6.738C5.42391 6.78467 5.37258 6.80333 5.30724 6.794C5.30724 6.80333 5.31658 6.81733 5.33524 6.836C5.35391 6.84533 5.35391 6.864 5.33524 6.892C5.12991 7.172 4.93858 7.46133 4.76124 7.76L5.05524 8.124C5.08324 8.16133 5.09724 8.20333 5.09724 8.25C5.09724 8.28733 5.10658 8.31067 5.12524 8.32C5.14391 8.32 5.15791 8.31533 5.16724 8.306C5.18591 8.29667 5.19991 8.292 5.20924 8.292C5.23724 8.292 5.26058 8.31533 5.27924 8.362C5.30724 8.39933 5.33524 8.432 5.36324 8.46C5.40058 8.49733 5.43791 8.53467 5.47524 8.572C5.52191 8.60933 5.56858 8.65133 5.61524 8.698V8.712C5.65258 8.74 5.71324 8.79133 5.79724 8.866C5.88124 8.94067 5.96058 9.01533 6.03524 9.09C6.10991 9.15533 6.15191 9.20667 6.16124 9.244C6.17991 9.28133 6.20791 9.30467 6.24524 9.314C6.28258 9.32333 6.31524 9.33733 6.34324 9.356C6.41791 9.412 6.49258 9.468 6.56724 9.524C6.65124 9.58 6.73058 9.64067 6.80524 9.706C6.83324 9.72467 6.84258 9.74333 6.83324 9.762C6.83324 9.78067 6.83791 9.79933 6.84724 9.818C6.86591 9.82733 6.89858 9.84133 6.94524 9.86C7.00124 9.86933 7.04324 9.88333 7.07124 9.902C7.28591 10.042 7.50058 10.1773 7.71524 10.308C7.92991 10.448 8.15391 10.5787 8.38724 10.7C8.62991 10.8213 8.87724 10.9287 9.12924 11.022C9.38124 11.1153 9.64724 11.162 9.92724 11.162C10.1512 11.162 10.3659 11.12 10.5712 11.036C10.7859 10.952 10.8932 10.798 10.8932 10.574C10.8932 10.4993 10.8792 10.42 10.8512 10.336C10.8419 10.2893 10.8232 10.238 10.7952 10.182C10.7766 10.126 10.7439 10.084 10.6972 10.056C10.6692 10 10.6179 9.96267 10.5432 9.944C10.4966 9.89733 10.4546 9.85067 10.4172 9.804C10.3799 9.748 10.3239 9.72467 10.2492 9.734C10.2212 9.706 10.2072 9.678 10.2072 9.65C10.2072 9.61267 10.2212 9.58467 10.2492 9.566C10.2866 9.538 10.3286 9.53333 10.3752 9.552C10.4406 9.58933 10.4919 9.64067 10.5292 9.706C10.5759 9.762 10.6366 9.79467 10.7112 9.804L10.7812 9.874C10.8092 9.92067 10.8372 9.958 10.8652 9.986C10.9026 10.014 10.9352 10.0513 10.9632 10.098C10.9912 10.1353 11.0192 10.1867 11.0472 10.252C11.0846 10.3267 11.1079 10.3873 11.1172 10.434C11.1359 10.4713 11.1406 10.5087 11.1312 10.546C11.1312 10.5833 11.1452 10.6253 11.1732 10.672C11.1919 10.9613 11.0986 11.1947 10.8932 11.372C10.6879 11.5587 10.4499 11.6613 10.1792 11.68C10.1512 11.6613 10.1232 11.6473 10.0952 11.638C10.0766 11.6287 10.0579 11.624 10.0392 11.624C10.0112 11.624 9.97391 11.6473 9.92724 11.694ZM3.44524 9.734C3.46391 9.74333 3.47324 9.74333 3.47324 9.734C3.48258 9.71533 3.48724 9.706 3.48724 9.706C3.50591 9.678 3.51524 9.65 3.51524 9.622C3.51524 9.58467 3.51991 9.552 3.52924 9.524C3.69724 9.104 3.91191 8.64667 4.17324 8.152C4.19191 8.11467 4.21058 8.10533 4.22924 8.124C4.25724 8.13333 4.27591 8.12867 4.28524 8.11C4.30391 8.09133 4.30858 8.068 4.29924 8.04C4.29924 8.012 4.29924 7.98867 4.29924 7.97C4.28991 7.95133 4.27591 7.93733 4.25724 7.928C4.23858 7.91867 4.22458 7.90467 4.21524 7.886C4.17791 7.78333 4.12658 7.718 4.06124 7.69C4.00524 7.65267 3.96324 7.59667 3.93524 7.522C3.89791 7.438 3.86058 7.37733 3.82324 7.34C3.79524 7.29333 3.75791 7.23733 3.71124 7.172L3.66924 7.648C3.65991 7.74133 3.64591 7.84867 3.62724 7.97C3.61791 8.09133 3.59458 8.20333 3.55724 8.306C3.54791 8.334 3.54324 8.376 3.54324 8.432V8.586C3.54324 8.60467 3.53858 8.628 3.52924 8.656C3.52924 8.684 3.52924 8.712 3.52924 8.74L3.50124 9.02C3.49191 9.11333 3.47791 9.21133 3.45924 9.314C3.44058 9.40733 3.43124 9.496 3.43124 9.58C3.43124 9.65467 3.43591 9.706 3.44524 9.734ZM11.7323 10.028C11.4989 10.028 11.2936 9.96267 11.1163 9.832C10.9389 9.70133 10.8503 9.47733 10.8503 9.16C10.8503 9.03867 10.8643 8.91733 10.8923 8.796C10.9203 8.66533 10.9529 8.53933 10.9903 8.418C11.0089 8.29667 11.0369 8.18933 11.0743 8.096C11.0836 8.05867 11.0883 8.04 11.0883 8.04C11.0976 8.03067 11.1209 8.01667 11.1583 7.998L11.2703 7.83V7.774C11.2609 7.774 11.2563 7.774 11.2563 7.774C11.2563 7.76467 11.2563 7.76 11.2563 7.76C11.2563 7.732 11.2796 7.69933 11.3263 7.662C11.3729 7.62467 11.3963 7.606 11.3963 7.606C11.4056 7.55933 11.4196 7.536 11.4383 7.536C11.4569 7.536 11.4803 7.522 11.5083 7.494H11.6623V7.466C11.6623 7.41933 11.6389 7.40067 11.5923 7.41C11.5549 7.41 11.5363 7.40533 11.5363 7.396C11.5363 7.38667 11.5503 7.368 11.5783 7.34C11.6156 7.30267 11.6389 7.27933 11.6483 7.27C11.6763 7.23267 11.6996 7.2 11.7183 7.172C11.7369 7.13467 11.7649 7.10667 11.8023 7.088C11.9703 6.88267 12.0729 6.752 12.1103 6.696C12.1569 6.64 12.2036 6.598 12.2503 6.57C12.2689 6.57 12.2829 6.57933 12.2923 6.598C12.3109 6.60733 12.3109 6.62133 12.2923 6.64C12.3109 6.668 12.3249 6.67267 12.3343 6.654C12.3529 6.63533 12.3623 6.626 12.3623 6.626L12.4183 6.598C12.3996 6.57933 12.3903 6.556 12.3903 6.528C12.3903 6.48133 12.3996 6.444 12.4183 6.416C12.4369 6.37867 12.4696 6.34133 12.5163 6.304C12.5723 6.26667 12.6003 6.24333 12.6003 6.234C12.6563 6.21533 12.6983 6.19667 12.7263 6.178C12.7636 6.15933 12.8009 6.15 12.8383 6.15C12.9036 6.15 12.9689 6.17333 13.0343 6.22C13.2116 6.31333 13.3609 6.40667 13.4823 6.5C13.6036 6.59333 13.6643 6.724 13.6643 6.892C13.6643 7.06933 13.5896 7.22333 13.4403 7.354C13.3003 7.47533 13.1276 7.578 12.9223 7.662C12.7169 7.746 12.5116 7.816 12.3063 7.872C12.1103 7.91867 11.9563 7.956 11.8443 7.984C11.7789 7.99333 11.7463 8.02133 11.7463 8.068C11.7556 8.10533 11.7509 8.14733 11.7323 8.194L11.6343 8.348L11.5503 8.544L11.4803 8.67C11.4149 8.726 11.3916 8.768 11.4103 8.796C11.4289 8.824 11.4616 8.81933 11.5083 8.782C11.5176 8.79133 11.5223 8.80533 11.5223 8.824C11.5223 8.86133 11.5129 8.908 11.4943 8.964C11.4756 9.01067 11.4616 9.048 11.4523 9.076C11.4429 9.11333 11.4429 9.132 11.4523 9.132C11.4709 9.12267 11.4803 9.14133 11.4803 9.188L11.4943 9.384C11.5503 9.56133 11.6763 9.664 11.8723 9.692C11.8909 9.692 11.9096 9.69667 11.9283 9.706C11.9563 9.706 11.9796 9.706 11.9983 9.706C12.1663 9.706 12.2549 9.692 12.2643 9.664C12.2829 9.636 12.3063 9.61733 12.3343 9.608C12.4183 9.58933 12.4883 9.57067 12.5443 9.552C12.6096 9.53333 12.6749 9.50533 12.7403 9.468C12.8523 9.42133 12.9596 9.36067 13.0623 9.286C13.1649 9.21133 13.2723 9.13667 13.3843 9.062L13.5243 8.964C13.5336 8.94533 13.5336 8.93133 13.5243 8.922C13.5149 8.91267 13.5149 8.90333 13.5243 8.894C13.5429 8.88467 13.5569 8.88467 13.5663 8.894C13.5849 8.894 13.5989 8.88933 13.6083 8.88C13.6269 8.87067 13.6456 8.85667 13.6643 8.838C13.6829 8.81 13.7016 8.78667 13.7203 8.768C13.7389 8.74933 13.7483 8.73067 13.7483 8.712C13.7576 8.69333 13.7716 8.67467 13.7903 8.656C13.8649 8.58133 13.9396 8.502 14.0143 8.418C14.0983 8.334 14.1683 8.25933 14.2243 8.194C14.2896 8.10067 14.3409 8.054 14.3783 8.054C14.3969 8.054 14.4063 8.06333 14.4063 8.082C14.4063 8.12867 14.3736 8.19867 14.3083 8.292C14.1496 8.52533 13.9676 8.754 13.7623 8.978C13.5569 9.19267 13.3329 9.38867 13.0903 9.566C12.9129 9.68733 12.7029 9.79467 12.4603 9.888C12.2176 9.98133 11.9749 10.028 11.7323 10.028ZM11.9423 7.774C12.0823 7.76467 12.2643 7.72733 12.4883 7.662C12.7123 7.58733 12.8989 7.48933 13.0483 7.368C13.2069 7.23733 13.2863 7.09267 13.2863 6.934C13.2863 6.78467 13.2069 6.64 13.0483 6.5C12.9176 6.59333 12.7729 6.72867 12.6143 6.906C12.4649 7.074 12.3296 7.242 12.2083 7.41C12.0869 7.56867 11.9983 7.69 11.9423 7.774ZM15.0318 9.86C14.9664 9.86 14.8638 9.804 14.7238 9.692C14.5931 9.58 14.5278 9.49133 14.5278 9.426C14.5278 9.398 14.5884 9.36067 14.7098 9.314C14.8404 9.258 14.9758 9.202 15.1158 9.146C15.2558 9.09 15.3444 9.048 15.3818 9.02V9.034C15.3818 9.07133 15.3631 9.118 15.3258 9.174C15.2884 9.23 15.2604 9.26733 15.2418 9.286L15.2558 9.384L15.2418 9.496C15.2138 9.53333 15.1904 9.60333 15.1718 9.706C15.1531 9.80867 15.1064 9.86 15.0318 9.86Z" fill="white"/>
</g>
<defs>
<clipPath id="clip0_28_2">
<rect width="16" height="16" fill="white"/>
</clipPath>
</defs>
</svg>
